 <svg version="1.0" xmlns="http://www.w3.org/2000/svg" width="700.000000pt" height="254.000000pt" viewBox="0 0 700.000000 254.000000" preserveAspectRatio="xMidYMid meet">
<metadata>
Created by potrace 1.12, written by Peter Selinger 2001-2015
</metadata>
<g transform="translate(0.000000,254.000000) scale(0.100000,-0.100000)" fill="#000000" stroke="none">
<path d="M542 1643 l3 -718 848 -3 847 -2 0 720 0 720 -850 0 -850 0 2 -717z
m1653 2 l0 -670 -800 0 -800 0 -3 660 c-1 363 0 666 3 673 3 10 169 12 802 10
l798 -3 0 -670z"></path>
<path d="M1517 1874 c-4 -4 -7 -69 -7 -145 0 -114 3 -138 15 -143 23 -9 26 8
23 154 -3 124 -10 155 -31 134z"></path>
<path d="M1167 1854 c-17 -17 11 -24 92 -24 48 0 90 -3 94 -6 11 -11 -33 -84
-75 -123 -22 -21 -62 -49 -89 -62 -27 -12 -49 -26 -49 -30 0 -40 113 15 178
86 26 28 53 70 60 93 22 74 24 72 -96 72 -60 0 -112 -3 -115 -6z"></path>
<path d="M1227 1544 c-4 -4 -7 -47 -7 -96 l0 -88 165 0 166 0 -3 93 -3 92
-156 3 c-85 1 -158 -1 -162 -4z m267 -30 c12 -5 16 -21 16 -65 l0 -60 -127 3
-128 3 -3 54 c-2 37 1 57 10 62 15 10 208 12 232 3z"></path>
<path d="M2740 1640 l0 -720 848 2 847 3 3 718 2 717 -850 0 -850 0 0 -720z
m1645 5 l0 -670 -800 0 -800 0 -3 660 c-1 363 0 666 3 673 3 10 169 12 802 10
l798 -3 0 -670z"></path>
<path d="M3740 1826 l0 -36 -55 0 c-41 0 -63 6 -91 25 -55 37 -122 35 -169 -6
-76 -67 -68 -187 18 -239 43 -27 89 -25 137 5 31 19 53 25 99 25 l60 0 3 -67
c2 -52 6 -68 18 -68 22 0 17 388 -5 393 -11 3 -15 -6 -15 -32z m-161 -45 c27
-26 31 -35 31 -84 0 -49 -4 -59 -31 -86 -76 -77 -191 -2 -172 112 13 84 109
117 172 58z m159 -83 l-3 -63 -45 0 -45 0 -2 63 -2 62 50 0 50 0 -3 -62z"></path>
<path d="M3450 1415 l0 -75 170 0 c143 0 170 2 170 15 0 12 -26 15 -152 17
l-153 3 -3 58 c-2 42 -7 57 -17 57 -12 0 -15 -16 -15 -75z"></path>
<path d="M4880 1640 l0 -720 850 0 850 0 0 720 0 720 -850 0 -850 0 0 -720z
m1648 3 l2 -673 -800 0 -800 0 0 668 c0 368 3 672 7 675 3 4 362 6 797 5 l791
-3 3 -672z"></path>
<path d="M5872 1593 c2 -199 6 -267 15 -270 9 -3 13 30 15 134 l3 138 43 3
c28 2 42 8 42 17 0 9 -14 15 -42 17 l-43 3 -3 113 c-2 91 -5 112 -17 112 -13
0 -15 -36 -13 -267z"></path>
<path d="M5575 1798 c-38 -30 -55 -76 -55 -151 0 -79 19 -128 63 -161 32 -25
107 -37 107 -18 0 4 10 12 22 17 36 16 67 91 67 160 0 70 -31 143 -70 162 -39
20 -103 16 -134 -9z m133 -30 c82 -88 37 -278 -66 -278 -20 0 -64 37 -80 67
-15 28 -15 148 0 176 31 60 106 77 146 35z"></path>
<path d="M2027 584 c-8 -8 1 -24 14 -24 5 0 9 7 9 15 0 15 -12 20 -23 9z"></path>
<path d="M2830 435 c0 -97 4 -155 10 -155 6 0 10 58 10 155 0 97 -4 155 -10
155 -6 0 -10 -58 -10 -155z"></path>
<path d="M555 560 c-3 -6 1 -13 9 -16 24 -9 23 -229 -1 -238 -27 -11 0 -28 37
-24 33 3 56 28 26 28 -23 0 -24 225 -1 234 8 3 15 10 15 16 0 13 -77 13 -85 0z"></path>
<path d="M3122 549 c-44 -29 -62 -67 -62 -132 0 -61 21 -97 70 -122 36 -18 99
-19 123 -1 26 20 21 23 -41 18 -55 -4 -60 -2 -95 31 -32 30 -37 40 -37 80 0
40 5 51 36 82 35 35 39 37 95 33 33 -2 59 -1 59 3 0 34 -98 39 -148 8z"></path>
<path d="M940 521 c0 -20 -6 -30 -20 -34 -11 -3 -20 -10 -20 -17 0 -7 9 -14
20 -17 18 -5 20 -14 20 -77 0 -43 5 -77 12 -84 17 -17 58 -15 58 3 0 8 -9 15
-19 15 -24 0 -31 19 -31 85 0 48 2 54 23 57 12 2 22 10 22 18 0 8 -10 16 -22
18 -18 3 -23 10 -23 33 0 16 -4 29 -10 29 -5 0 -10 -13 -10 -29z"></path>
<path d="M1900 521 c0 -20 -6 -30 -20 -34 -11 -3 -20 -10 -20 -17 0 -7 9 -14
20 -17 18 -5 20 -14 20 -77 0 -43 5 -77 12 -84 17 -17 58 -15 58 3 0 8 -9 15
-19 15 -24 0 -31 19 -31 86 0 49 2 54 25 60 14 3 25 10 25 14 0 4 -11 11 -25
14 -20 5 -25 13 -25 36 0 17 -4 30 -10 30 -5 0 -10 -13 -10 -29z"></path>
<path d="M741 472 c-18 -12 -25 -14 -29 -4 -2 6 -10 12 -18 12 -11 0 -14 -20
-14 -100 0 -82 3 -100 15 -100 12 0 15 14 15 68 0 79 15 102 68 102 41 0 52
-22 52 -104 0 -37 4 -66 10 -66 6 0 10 34 10 83 0 74 -3 86 -23 105 -28 26
-53 27 -86 4z"></path>
<path d="M1098 467 c-38 -31 -51 -70 -38 -117 12 -45 46 -70 95 -70 31 0 65
17 65 33 0 2 -24 2 -53 -1 -43 -3 -55 -1 -70 16 -29 31 -12 42 64 42 l69 0 0
31 c0 22 -9 40 -31 60 -37 35 -65 37 -101 6z m90 -29 c27 -27 13 -38 -48 -38
-33 0 -60 3 -60 7 0 34 81 58 108 31z"></path>
<path d="M1350 473 c-17 -12 -25 -13 -28 -5 -2 7 -10 12 -18 12 -11 0 -14 -20
-14 -100 0 -60 4 -100 10 -100 6 0 10 26 10 58 0 65 17 105 45 110 28 5 41 20
29 32 -6 6 -18 4 -34 -7z"></path>
<path d="M1495 473 c-20 -11 -30 -12 -33 -4 -2 6 -10 11 -18 11 -11 0 -14 -21
-14 -101 0 -76 3 -100 13 -97 7 3 13 29 15 69 4 75 20 99 68 99 43 0 54 -21
54 -104 0 -37 4 -66 10 -66 6 0 10 33 10 79 0 64 -4 83 -21 105 -23 30 -42 32
-84 9z"></path>
<path d="M1703 478 c-39 -19 -26 -33 29 -33 32 0 53 -5 55 -12 3 -8 -4 -13
-16 -13 -12 0 -31 -5 -44 -12 -12 -6 -29 -14 -37 -18 -8 -4 -19 -19 -24 -33
-21 -60 56 -104 100 -56 l18 20 11 -23 c8 -18 11 -5 13 67 3 82 1 92 -19 108
-24 19 -53 21 -86 5z m87 -111 c0 -7 -7 -23 -16 -35 -24 -34 -78 -28 -82 10
-3 29 7 35 66 37 20 1 32 -4 32 -12z"></path>
<path d="M2163 470 c-19 -11 -35 -31 -39 -47 -3 -15 -7 -33 -9 -40 -8 -25 18
-74 46 -88 39 -21 76 -19 109 5 54 39 52 137 -3 170 -40 25 -64 25 -104 0z
m106 -33 c39 -48 8 -127 -50 -127 -48 0 -79 26 -79 68 0 49 24 72 75 72 24 0
48 -6 54 -13z"></path>
<path d="M2431 472 c-18 -12 -26 -13 -29 -4 -2 6 -10 12 -18 12 -11 0 -14 -20
-14 -100 0 -82 3 -100 15 -100 12 0 15 14 15 68 1 81 14 102 63 102 47 0 57
-19 57 -104 0 -37 4 -66 10 -66 6 0 10 34 10 83 0 67 -3 87 -17 100 -28 25
-65 28 -92 9z"></path>
<path d="M2636 471 c-18 -19 -17 -20 35 -23 29 -2 54 -8 56 -13 2 -6 -20 -18
-49 -26 -68 -20 -91 -54 -68 -97 20 -36 64 -41 95 -12 l22 21 6 -23 c12 -43
21 -7 19 75 -2 70 -5 85 -23 100 -28 23 -72 22 -93 -2z m94 -104 c0 -7 -7 -23
-16 -35 -24 -34 -78 -28 -82 10 -3 29 7 35 66 37 20 1 32 -4 32 -12z"></path>
<path d="M3367 474 c-55 -30 -65 -118 -18 -165 35 -35 80 -38 121 -9 54 39 52
137 -3 170 -38 24 -62 24 -100 4z m107 -46 c35 -49 1 -118 -58 -118 -63 0 -97
66 -60 118 22 32 96 32 118 0z"></path>
<path d="M3632 469 c-19 -17 -23 -18 -28 -5 -3 9 -13 16 -20 16 -20 0 -16
-191 4 -198 9 -3 12 16 12 70 0 83 9 98 57 98 42 0 53 -21 53 -104 0 -37 4
-66 10 -66 6 0 10 28 10 63 0 79 17 107 65 107 40 0 43 -8 47 -104 2 -37 8
-61 16 -64 9 -3 12 15 12 67 0 84 -11 117 -44 132 -21 10 -31 8 -61 -10 l-37
-21 -25 20 c-32 25 -44 25 -71 -1z"></path>
<path d="M4000 473 c-17 -12 -25 -13 -28 -5 -2 7 -10 12 -18 12 -11 0 -14 -27
-14 -150 0 -93 4 -150 10 -150 6 0 10 15 10 34 0 18 3 47 6 64 6 30 8 31 27
17 57 -40 117 1 125 84 4 46 2 53 -26 81 -35 34 -57 37 -92 13z m84 -45 c48
-68 -33 -152 -99 -102 -23 17 -27 82 -6 108 21 25 86 21 105 -6z"></path>
<path d="M4208 476 c-28 -21 -22 -26 31 -26 34 0 51 -4 55 -15 4 -11 -1 -15
-19 -15 -13 0 -27 -4 -30 -10 -3 -5 -15 -10 -25 -10 -46 0 -68 -71 -32 -103
25 -23 54 -21 86 4 l26 20 0 -20 c0 -12 5 -21 10 -21 6 0 10 35 10 85 0 74 -3
87 -22 105 -25 23 -65 26 -90 6z m92 -112 c0 -20 -41 -54 -66 -54 -26 0 -48
24 -41 44 7 17 63 35 90 28 9 -2 17 -10 17 -18z"></path>
<path d="M4451 472 c-18 -12 -25 -14 -29 -4 -2 6 -10 12 -18 12 -11 0 -14 -21
-14 -101 0 -76 3 -100 13 -97 7 3 14 31 17 74 3 38 9 75 13 82 5 6 26 12 47
12 50 0 60 -18 60 -104 0 -37 4 -66 10 -66 6 0 10 33 10 80 0 73 -3 83 -25
105 -28 29 -50 31 -84 7z"></path>
<path d="M2022 383 c2 -66 7 -98 16 -101 9 -3 12 21 12 97 0 84 -3 101 -15
101 -13 0 -15 -15 -13 -97z"></path>
<path d="M4617 463 c3 -10 16 -40 28 -68 47 -106 50 -119 30 -149 -10 -15 -29
-32 -42 -37 -27 -10 -22 -29 7 -29 16 0 60 47 60 64 0 3 9 25 19 49 28 60 71
169 71 179 0 4 -4 8 -9 8 -4 0 -21 -34 -37 -75 -31 -81 -50 -93 -67 -40 -5 17
-15 44 -23 62 -8 17 -14 36 -14 42 0 6 -7 11 -15 11 -9 0 -12 -6 -8 -17z"></path>
</g>
</svg>